<?xml version="1.0" encoding="UTF-8"?>
<svg version="1.1" xmlns="http://www.w3.org/2000/svg" width="727" height="216">
<path d="M0 0 C239.91 0 479.82 0 727 0 C727 71.28 727 142.56 727 216 C487.09 216 247.18 216 0 216 C0 144.72 0 73.44 0 0 Z " fill="#04080B" transform="translate(0,0)"/>
<path d="M0 0 C3.74388774 1.89917214 6.33343685 4.14326537 9.0625 7.3125 C9.3925 4.6725 9.7225 2.0325 10.0625 -0.6875 C14.6825 -0.6875 19.3025 -0.6875 24.0625 -0.6875 C24.0625 19.7725 24.0625 40.2325 24.0625 61.3125 C19.4425 61.3125 14.8225 61.3125 10.0625 61.3125 C10.0625 58.0125 10.0625 54.7125 10.0625 51.3125 C9.4025 51.3125 8.7425 51.3125 8.0625 51.3125 C7.80855469 51.90546875 7.55460937 52.4984375 7.29296875 53.109375 C4.94404543 57.31506628 1.44366888 59.47618798 -2.9375 61.3125 C-9.46817358 62.31237829 -16.45387628 62.7217221 -22.375 59.375 C-24.1640625 57.98828125 -24.1640625 57.98828125 -25.9375 56.3125 C-26.64648438 55.64605469 -27.35546875 54.97960937 -28.0859375 54.29296875 C-36.21903301 45.91030172 -37.43936295 38.22994148 -37.35766602 26.91088867 C-37.02758826 16.80080753 -33.21430899 10.27429561 -25.9375 3.3125 C-18.46430314 -2.70081654 -8.87956424 -3.70106207 0 0 Z " fill="#F8F8F8" transform="translate(223.9375,91.6875)"/>
<path d="M0 0 C1.92578125 1.5078125 1.92578125 1.5078125 3.92578125 3.5078125 C4.25578125 1.1978125 4.58578125 -1.1121875 4.92578125 -3.4921875 C9.54578125 -3.4921875 14.16578125 -3.4921875 18.92578125 -3.4921875 C18.92578125 16.6378125 18.92578125 36.7678125 18.92578125 57.5078125 C14.63578125 57.5078125 10.34578125 57.5078125 5.92578125 57.5078125 C5.92578125 54.2078125 5.92578125 50.9078125 5.92578125 47.5078125 C5.26578125 47.5078125 4.60578125 47.5078125 3.92578125 47.5078125 C3.71953125 48.0646875 3.51328125 48.6215625 3.30078125 49.1953125 C0.7425368 53.49781454 -3.44240679 56.66487323 -8.07421875 58.5078125 C-16.2276388 59.57576676 -23.05439687 59.19337026 -29.88671875 54.40625 C-37.47551929 47.82025525 -41.56693969 40.690276 -42.38671875 30.69921875 C-42.7145833 22.90302217 -42.26824098 16.28839199 -38.07421875 9.5078125 C-37.51734375 8.4765625 -36.96046875 7.4453125 -36.38671875 6.3828125 C-26.87028693 -5.44842707 -12.99754982 -8.80685045 0 0 Z " fill="#FAFAFA" transform="translate(364.07421875,94.4921875)"/>
<path d="M0 0 C5.94 0 11.88 0 18 0 C21.84655179 8.616276 25.53733159 17.20451522 28.79711914 26.05761719 C32.88721972 37.16223345 37.41877134 48.09021508 42 59 C43.67429547 62.99686998 45.34058492 66.9969305 47 71 C47.59554687 72.42119141 47.59554687 72.42119141 48.203125 73.87109375 C48.56921875 74.75925781 48.9353125 75.64742188 49.3125 76.5625 C49.63863281 77.34753906 49.96476563 78.13257813 50.30078125 78.94140625 C51 81 51 81 51 84 C46.05 84 41.1 84 36 84 C32.39816316 78.35712229 31.54874771 74.96936471 30 68 C15.48 68 0.96 68 -14 68 C-14.33 69.65 -14.66 71.3 -15 73 C-15.62654306 74.76476294 -16.29377216 76.51558751 -17 78.25 C-17.350625 79.12140625 -17.70125 79.9928125 -18.0625 80.890625 C-19 83 -19 83 -20 84 C-22.53049402 84.07313567 -25.03304837 84.09247527 -27.5625 84.0625 C-28.27341797 84.05798828 -28.98433594 84.05347656 -29.71679688 84.04882812 C-31.47790013 84.03700864 -33.23896036 84.01907263 -35 84 C-34.35952645 80.16022316 -33.22822779 76.84403286 -31.71484375 73.26171875 C-31.26689453 72.19501953 -30.81894531 71.12832031 -30.35742188 70.02929688 C-29.88884766 68.92650391 -29.42027344 67.82371094 -28.9375 66.6875 C-28.46505859 65.56537109 -27.99261719 64.44324219 -27.50585938 63.28710938 C-26.34138677 60.52295723 -25.17263728 57.760696 -24 55 C-17.8621392 54.77682587 -11.72665783 54.61389178 -5.58569336 54.50561523 C-3.49901174 54.46046718 -1.41261311 54.39913009 0.6730957 54.32104492 C18.0929724 53.6854043 18.0929724 53.6854043 22.96435547 57.04345703 C24.73256886 59.31687425 25.97756759 61.31598886 27 64 C25.50214496 58.32975271 23.49989603 52.98217003 21.296875 47.55078125 C20.93660217 46.65691208 20.57632935 45.76304291 20.20513916 44.84208679 C19.44374083 42.95625037 18.68050122 41.07115644 17.91552734 39.18676758 C16.76163409 36.34119043 15.61679806 33.49208769 14.47265625 30.64257812 C8.267019 14.80711935 8.267019 14.80711935 0 0 Z " fill="#F6F6F6" transform="translate(595,68)"/>
<path d="M0 0 C7.02933221 4.01676126 10.21525292 8.1831194 13.0625 15.75 C13.67014674 19.45706462 13.65211763 23.04062482 13.55078125 26.7890625 C13.54370651 27.79593109 13.53663177 28.80279968 13.52934265 29.84017944 C13.50161491 33.01924664 13.43891781 36.19647577 13.375 39.375 C13.34988918 41.54554727 13.32708092 43.71612247 13.30664062 45.88671875 C13.25185921 51.17517475 13.16573861 56.46227704 13.0625 61.75 C8.4425 61.75 3.8225 61.75 -0.9375 61.75 C-0.95208252 60.50387939 -0.96666504 59.25775879 -0.98168945 57.97387695 C-1.039743 53.34240288 -1.11697576 48.71141138 -1.19995117 44.08032227 C-1.23316727 42.07747236 -1.26120952 40.0745296 -1.28393555 38.0715332 C-1.31754234 35.18921406 -1.36986148 32.30774332 -1.42578125 29.42578125 C-1.43217117 28.53288895 -1.4385611 27.63999664 -1.44514465 26.720047 C-1.55774188 21.93897552 -1.79637371 18.6064462 -4.9375 14.75 C-9.42803604 11.72149895 -13.6462706 10.79083292 -18.9375 11.75 C-22.99939848 13.85616958 -25.2345524 15.52581555 -26.9375 19.75 C-27.2588405 21.80493662 -27.2588405 21.80493662 -27.25634766 23.96777344 C-27.27621735 24.78832214 -27.29608704 25.60887085 -27.31655884 26.45428467 C-27.33388565 27.76855438 -27.33388565 27.76855438 -27.3515625 29.109375 C-27.37092865 30.01375305 -27.3902948 30.9181311 -27.4102478 31.84991455 C-27.46993831 34.73318099 -27.51638686 37.61648758 -27.5625 40.5 C-27.60068947 42.45704848 -27.63974177 44.41408033 -27.6796875 46.37109375 C-27.77563125 51.16392711 -27.85970127 55.95683915 -27.9375 60.75 C-32.5575 60.75 -37.1775 60.75 -41.9375 60.75 C-41.9375 40.62 -41.9375 20.49 -41.9375 -0.25 C-37.6475 -0.25 -33.3575 -0.25 -28.9375 -0.25 C-28.6075 2.39 -28.2775 5.03 -27.9375 7.75 C-27.32261719 7.18410156 -26.70773437 6.61820312 -26.07421875 6.03515625 C-25.26597656 5.30167969 -24.45773437 4.56820312 -23.625 3.8125 C-22.42423828 2.71615234 -22.42423828 2.71615234 -21.19921875 1.59765625 C-15.788141 -2.82279242 -6.32811254 -2.57035918 0 0 Z " fill="#F9F9F9" transform="translate(300.9375,91.25)"/>
<path d="M0 0 C2.40864961 1.86659416 4.06424555 3.6217874 6 6 C4.78371983 9.64884051 3.15747585 10.5046971 -0.16796875 12.265625 C-2.89263366 13.35781477 -4.29779165 13.1085983 -7 12 C-9.02456848 10.70427617 -11.02678947 9.3726682 -13 8 C-17.20644072 6.59785309 -21.07093675 6.49235178 -25.375 7.625 C-27.83314961 9.70497274 -27.73069242 11.9029628 -28 15 C-25.08335631 17.43362995 -22.68750233 18.56812128 -19.0078125 19.46484375 C-18.05519531 19.70783203 -17.10257812 19.95082031 -16.12109375 20.20117188 C-14.13196987 20.69002435 -12.14238859 21.1770196 -10.15234375 21.66210938 C-3.34512114 23.4029578 0.99480634 25.4693106 6.375 30 C8.98899706 34.82584073 8.59027982 39.63646977 8 45 C5.9369674 51.30371073 1.66764509 54.61603375 -4.1171875 57.6171875 C-8.49601083 59.42535546 -12.68727732 59.49657917 -17.375 59.4375 C-18.21844971 59.42920166 -19.06189941 59.42090332 -19.9309082 59.41235352 C-29.65806211 59.14736755 -35.26329547 56.10273876 -42.46875 49.68359375 C-44 48 -44 48 -45 45 C-43.37829621 43.99466333 -41.75252763 42.99588093 -40.125 42 C-39.22007812 41.443125 -38.31515625 40.88625 -37.3828125 40.3125 C-35 39 -35 39 -33 39 C-32.608125 39.763125 -32.21625 40.52625 -31.8125 41.3125 C-29.4621156 44.79755274 -26.97775985 46.04266601 -23 47 C-16.90332592 47.70420444 -12.3125111 47.35527017 -7 44 C-6.7497843 41.08365871 -6.7497843 41.08365871 -7 38 C-10.55655477 35.62896349 -13.95669435 35.0389037 -18.0625 34.1875 C-26.35036782 32.35100873 -35.64017244 30.14643675 -41 23 C-43.50359584 18.61870728 -43.79447255 13.91426318 -43 9 C-40.70934714 3.4159192 -37.38249183 -0.20110425 -32 -3 C-21.09279058 -7.36288377 -10.15042055 -5.34450715 0 0 Z " fill="#F8F8F8" transform="translate(517,94)"/>
<path d="M0 0 C4.09009745 -0.09260598 8.17747303 -0.17199502 12.26806641 -0.21972656 C13.65491156 -0.23965342 15.04167482 -0.2668056 16.42822266 -0.30175781 C28.31313362 -0.59351736 37.42761888 0.77213717 46.30859375 9.1328125 C51.31504264 14.65956208 53.32949627 20.29874963 53.21875 27.71875 C52.30303229 37.26837759 48.18762061 44.35325356 41.07421875 50.60546875 C35.52565732 54.33585751 30.9725411 55.37316315 24.31640625 55.29296875 C23.61603745 55.28872391 22.91566864 55.28447906 22.19407654 55.28010559 C19.98314 55.26347156 17.77315543 55.2258518 15.5625 55.1875 C14.05274765 55.17243326 12.54298084 55.15874836 11.03320312 55.14648438 C7.35481757 55.11618466 3.6784592 55.05744268 0 55 C0 50.38 0 45.76 0 41 C1.87945312 40.96261719 3.75890625 40.92523438 5.6953125 40.88671875 C8.17189471 40.8210518 10.64845633 40.75460471 13.125 40.6875 C14.98125 40.65366211 14.98125 40.65366211 16.875 40.61914062 C18.07382813 40.58369141 19.27265625 40.54824219 20.5078125 40.51171875 C22.15740967 40.47244263 22.15740967 40.47244263 23.84033203 40.43237305 C28.86265116 39.74511241 32.0714895 38.07511742 35.375 34.25 C37.28625223 30.42749554 37.53751218 28.22330997 37 24 C35.50407393 20.42639883 33.43850078 17.97726968 30.17138672 15.8581543 C25.01289826 13.81946676 19.09404596 14.31034053 13.625 14.25 C12.31660156 14.22035156 11.00820312 14.19070312 9.66015625 14.16015625 C6.44043352 14.08965137 3.22021363 14.04253915 0 14 C0 9.38 0 4.76 0 0 Z " fill="#FAFAFA" transform="translate(84,68)"/>
<path d="M0 0 C4.95 0 9.9 0 15 0 C19.4309122 11.09112709 23.55206467 22.25700251 27.421875 33.55688477 C27.74414062 34.49717529 28.06640625 35.43746582 28.3984375 36.40625 C28.68380371 37.24478516 28.96916992 38.08332031 29.26318359 38.94726562 C29.96334561 41.02564659 29.96334561 41.02564659 31 43 C31.34780518 41.94611084 31.69561035 40.89222168 32.05395508 39.80639648 C33.3535848 35.87112031 34.65727725 31.93719985 35.9621582 28.00366211 C36.52477945 26.3057833 37.08631993 24.60754595 37.64672852 22.90893555 C38.45560691 20.45785425 39.2684512 18.00811787 40.08203125 15.55859375 C40.32903275 14.80726669 40.57603424 14.05593964 40.83052063 13.28184509 C42.34301031 8.74342415 44.05711071 4.37213088 46 0 C50.95 0 55.9 0 61 0 C58.80038305 7.72373639 56.11537791 15.14993045 53.1875 22.625 C52.29237904 24.92815631 51.39784636 27.23154135 50.50390625 29.53515625 C50.07352051 30.64262207 49.64313477 31.75008789 49.19970703 32.89111328 C47.63908487 36.93526522 46.12740783 40.9964558 44.625 45.0625 C42.60769479 50.47827676 40.43353916 55.75853104 38 61 C33.05 61 28.1 61 23 61 C22.35933594 59.32035156 21.71867187 57.64070313 21.05859375 55.91015625 C15.30668821 40.83209168 15.30668821 40.83209168 9.25 25.875 C6.92565333 20.30531333 4.6951656 14.70861172 2.5625 9.0625 C2.30307617 8.38106934 2.04365234 7.69963867 1.77636719 6.99755859 C0 2.24388272 0 2.24388272 0 0 Z " fill="#F9F9F9" transform="translate(390,91)"/>
<path d="M0 0 C0.66 0.33 1.32 0.66 2 1 C2 1.66 2 2.32 2 3 C2.66 3 3.32 3 4 3 C4 2.34 4 1.68 4 1 C4.66 1 5.32 1 6 1 C10.65786722 9.81564685 14.50000075 18.82658772 18.15942383 28.08984375 C19.05933521 30.36699177 19.96747016 32.64072271 20.87695312 34.9140625 C24.4488535 43.87713274 27.8295885 52.88677463 31 62 C30.34 62 29.68 62 29 62 C28.68474365 61.29117676 28.3694873 60.58235352 28.04467773 59.85205078 C26.40941658 56.34910557 25.03457758 54.43987698 22 52 C14.96927643 50.07133652 7.28123798 50.74040648 0.0625 50.875 C-1.97721428 50.87694305 -4.01693812 50.87438626 -6.05664062 50.8671875 C-11.03937869 50.85938101 -16.01804964 50.91312579 -21 51 C-21 50.67 -21 50.34 -21 50 C-16.05 49.67 -11.1 49.34 -6 49 C-9.63 47.02 -13.26 45.04 -17 43 C-16.29967025 38.79802148 -15.81349039 36.10430904 -14.25 32.375 C-13.89164063 31.51132813 -13.53328125 30.64765625 -13.1640625 29.7578125 C-12.77992188 28.84773438 -12.39578125 27.93765625 -12 27 C-11.42378906 25.60394531 -11.42378906 25.60394531 -10.8359375 24.1796875 C-9.56908223 21.11471506 -8.2873085 18.05643818 -7 15 C-6.73864258 14.37883301 -6.47728516 13.75766602 -6.20800781 13.11767578 C-5.39172858 11.18130688 -4.57149804 9.24665994 -3.75 7.3125 C-3.24984375 6.13300781 -2.7496875 4.95351562 -2.234375 3.73828125 C-1 1 -1 1 0 0 Z " fill="#0C0D11" transform="translate(593,72)"/>
<path d="M0 0 C4.95 0 9.9 0 15 0 C15 27.72 15 55.44 15 84 C10.05 84 5.1 84 0 84 C0 56.28 0 28.56 0 0 Z " fill="#FEFEFE" transform="translate(655,68)"/>
<path d="M0 0 C0 4.62 0 9.24 0 14 C-2.18625 14.2475 -4.3725 14.495 -6.625 14.75 C-12.20323703 15.54447618 -15.84211582 16.18860617 -20 20 C-22.00667234 23.01000852 -22.25491971 23.63492456 -22.31884766 27.01245117 C-22.33871735 27.81305466 -22.35858704 28.61365814 -22.37905884 29.43852234 C-22.39638565 30.72772331 -22.39638565 30.72772331 -22.4140625 32.04296875 C-22.43342865 32.9265657 -22.4527948 33.81016266 -22.4727478 34.72053528 C-22.53252805 37.54275866 -22.57892266 40.36502286 -22.625 43.1875 C-22.66318122 45.10092925 -22.70223304 47.01434133 -22.7421875 48.92773438 C-22.83822832 53.61835021 -22.9222651 58.30904652 -23 63 C-27.95 63 -32.9 63 -38 63 C-38 42.54 -38 22.08 -38 1 C-33.05 1 -28.1 1 -23 1 C-22.67 3.64 -22.34 6.28 -22 9 C-21.49210937 8.51789063 -20.98421875 8.03578125 -20.4609375 7.5390625 C-13.75859604 1.3889739 -9.01895751 -0.31099853 0 0 Z " fill="#F7F7F7" transform="translate(183,90)"/>
<path d="M0 0 C5.00230198 2.45567552 8.49851535 5.9970307 11 11 C11.17603147 13.41249692 11.26744968 15.83150895 11.3125 18.25 C11.36857422 20.20679688 11.36857422 20.20679688 11.42578125 22.203125 C10.81687882 27.63297048 8.50697926 30.60894222 4.5625 34.25 C-0.38164114 37.62648663 -3.88558045 38.46261767 -9.7890625 37.58984375 C-14.35349863 36.37212316 -16.82531224 33.85534796 -19.25390625 30.01953125 C-22.41523839 23.79600283 -23.43693894 17.46450012 -21.26953125 10.73046875 C-16.87837939 1.06993466 -10.0248984 -1.02092318 0 0 Z " fill="#03070C" transform="translate(223,103)"/>
<path d="M0 0 C5.69037302 2.79345585 9.52252912 7.18424208 12 13 C13.22433415 20.36954979 11.88485147 25.82277576 7.6953125 31.9609375 C4.72254192 35.53648184 2.2006322 36.75548531 -2.390625 37.265625 C-7.65434935 37.48626015 -11.5532936 37.0703449 -16 34 C-19.63830702 30.36169298 -21.08952695 27.04898691 -22 22 C-22 15.36460467 -21.19879811 8.60093273 -16.6328125 3.4609375 C-11.66939176 -0.7900305 -6.2877143 -1.02579025 0 0 Z " fill="#04080F" transform="translate(358,103)"/>
<path d="M0 0 C4.54230412 -0.10800723 9.08203539 -0.18733842 13.625 -0.25 C15.55279297 -0.30027344 15.55279297 -0.30027344 17.51953125 -0.3515625 C29.24163065 -0.47303503 29.24163065 -0.47303503 34 4 C34.598125 4.515625 35.19625 5.03125 35.8125 5.5625 C38.62145591 8.96281505 38.35429368 12.81933452 38 17 C35.26114877 22.08643801 32.4898792 25.17004027 27 27 C24.93501108 27.08315752 22.8674211 27.10735878 20.80078125 27.09765625 C19.71192627 27.09515869 18.62307129 27.09266113 17.5012207 27.09008789 C16.11894287 27.08098389 14.73666504 27.07187988 13.3125 27.0625 C8.919375 27.041875 4.52625 27.02125 0 27 C0 18.09 0 9.18 0 0 Z " fill="#010307" transform="translate(84,82)"/>
<path d="M0 0 C6.11942987 -0.27305244 12.23528049 -0.47201454 18.359375 -0.60424805 C20.43943055 -0.65938634 22.51906314 -0.73432486 24.59765625 -0.82983398 C41.46673681 -1.58522624 41.46673681 -1.58522624 45.75634766 1.09906006 C48.72818613 3.92238245 50.53515387 7.21220924 52 11 C52 11.33 52 11.66 52 12 C38.47 12.33 24.94 12.66 11 13 C9.02 17.95 7.04 22.9 5 28 C4 29 4 29 0.62109375 29.09765625 C-0.77347077 29.09098369 -2.16801743 29.07902532 -3.5625 29.0625 C-4.27341797 29.05798828 -4.98433594 29.05347656 -5.71679688 29.04882812 C-7.47790013 29.03700864 -9.23896036 29.01907263 -11 29 C-10.35952645 25.16022316 -9.22822779 21.84403286 -7.71484375 18.26171875 C-7.04291992 16.66166992 -7.04291992 16.66166992 -6.35742188 15.02929688 C-5.88884766 13.92650391 -5.42027344 12.82371094 -4.9375 11.6875 C-4.46505859 10.56537109 -3.99261719 9.44324219 -3.50585938 8.28710938 C-2.34138677 5.52295723 -1.17263728 2.760696 0 0 Z " fill="#FCFCFC" transform="translate(571,123)"/>
<path d="M0 0 C2.56090153 2.31987551 4.13932218 4.69918671 5.75 7.75 C6.19859375 8.56984375 6.6471875 9.3896875 7.109375 10.234375 C9.0329294 16.2075176 6.57305262 21.58080742 4.25 27.125 C3.71010689 28.43064643 3.17106158 29.73664371 2.6328125 31.04296875 C2.36114258 31.69700684 2.08947266 32.35104492 1.80957031 33.02490234 C0.5311956 36.14373571 -0.67076313 39.28928076 -1.875 42.4375 C-2.48988281 44.04431641 -2.48988281 44.04431641 -3.1171875 45.68359375 C-3.40851562 46.44800781 -3.69984375 47.21242187 -4 48 C-7.44669625 47.42655667 -10.22188165 46.56138422 -13.3125 44.9375 C-14.00988281 44.57527344 -14.70726562 44.21304688 -15.42578125 43.83984375 C-15.94527344 43.56269531 -16.46476563 43.28554687 -17 43 C-16.39077493 37.21236185 -14.24017059 32.3072498 -12 27 C-11.61585938 26.06929687 -11.23171875 25.13859375 -10.8359375 24.1796875 C-9.56908223 21.11471506 -8.2873085 18.05643818 -7 15 C-6.73864258 14.37883301 -6.47728516 13.75766602 -6.20800781 13.11767578 C-5.39172858 11.18130688 -4.57149804 9.24665994 -3.75 7.3125 C-3.24984375 6.13300781 -2.7496875 4.95351562 -2.234375 3.73828125 C-1 1 -1 1 0 0 Z " fill="#F5F6F6" transform="translate(593,72)"/>
<path d="M0 0 C2.31 1.98 4.62 3.96 7 6 C7.79728516 6.59683594 8.59457031 7.19367188 9.41601562 7.80859375 C12.95120156 10.70196477 14.77143357 12.78803357 15.6328125 17.35546875 C15.78685495 21.26733611 15.69911268 25.0904991 15.5 29 C15.45980203 30.36057174 15.42331231 31.72125835 15.390625 33.08203125 C15.29680309 36.38925347 15.15332466 39.69500183 15 43 C10.05 43 5.1 43 0 43 C0 28.81 0 14.62 0 0 Z " fill="#FCFCFC" transform="translate(68,109)"/>
<path d="M0 0 C3.1953089 2.51397073 6.00096095 4.95319346 8.625 8.0625 C10.90339246 10.82087853 10.90339246 10.82087853 13.5847168 13.14941406 C15.77801062 16.01730558 15.36880696 19.05209043 15.29296875 22.51171875 C15.28872391 23.23994339 15.28447906 23.96816803 15.28010559 24.71846008 C15.26332733 27.04185127 15.22567855 29.3643715 15.1875 31.6875 C15.17245197 33.26365934 15.15876377 34.83983229 15.14648438 36.41601562 C15.11342685 40.27767877 15.06165194 44.13869178 15 48 C14.34 48 13.68 48 13 48 C11.484375 46.4609375 11.484375 46.4609375 9.75 44.375 C7.29129115 41.40028665 7.29129115 41.40028665 4.50820923 38.74145508 C1.25784592 35.92500687 0.10240864 34.5716531 -0.68115234 30.19775391 C-0.68021472 28.79033251 -0.64703061 27.38265762 -0.5859375 25.9765625 C-0.57744781 25.23038666 -0.56895813 24.48421082 -0.56021118 23.71542358 C-0.52683158 21.35043058 -0.45159827 18.98894795 -0.375 16.625 C-0.34487968 15.01437245 -0.31750748 13.40369101 -0.29296875 11.79296875 C-0.22709329 7.8606428 -0.12369346 3.93091481 0 0 Z " fill="#FCFCFC" transform="translate(68,68)"/>
<path d="M0 0 C4.62 0 9.24 0 14 0 C14.81643323 10.94020535 10.9053456 19.39070128 6 29 C3.69 29 1.38 29 -1 29 C-0.43179252 23.54520815 0.94637945 19.08940744 3 14 C2.01 14 1.02 14 0 14 C0 9.38 0 4.76 0 0 Z " fill="#F7F7F8" transform="translate(459,67)"/>
<path d="M0 0 C14.19 0 28.38 0 43 0 C43 0.33 43 0.66 43 1 C34.09 1 25.18 1 16 1 C16 14.86 16 28.72 16 43 C15.67 43 15.34 43 15 43 C15.02525757 41.84383179 15.02525757 41.84383179 15.05102539 40.66430664 C15.10168118 37.12927532 15.08259736 33.59780899 15.0625 30.0625 C15.09021484 28.85013672 15.11792969 27.63777344 15.14648438 26.38867188 C15.05643508 19.74303364 14.61352523 15.81299344 9.74609375 11.05859375 C8.97837646 10.43138428 8.21065918 9.8041748 7.41967773 9.15795898 C5 7 5 7 0 0 Z " fill="#27292D" transform="translate(68,67)"/>
</svg>
